<?xml version="1.0" encoding="utf-8"?>
<!-- Generator: Adobe Illustrator 16.0.0, SVG Export Plug-In . SVG Version: 6.00 Build 0)  -->
<!DOCTYPE svg PUBLIC "-//W3C//DTD SVG 1.1//EN" "http://www.w3.org/Graphics/SVG/1.1/DTD/svg11.dtd">
<svg version="1.1" id="图层_1" xmlns="http://www.w3.org/2000/svg" xmlns:xlink="http://www.w3.org/1999/xlink" x="0px" y="0px"
	 width="105.5px" height="50.58px" viewBox="0 0 105.5 50.58" enable-background="new 0 0 105.5 50.58" xml:space="preserve">
<g>
	<defs>
		<rect id="SVGID_1_" width="105.5" height="50.58"/>
	</defs>
	<clipPath id="SVGID_2_">
		<use xlink:href="#SVGID_1_"  overflow="visible"/>
	</clipPath>
	<g clip-path="url(#SVGID_2_)">
		<path fill="#F9CC8B" d="M26.639,27.361c0,0,1.444-15.464,4.555-17.287c3.118-1.827,14.528,7.859,14.528,7.859
			S31.713,28.803,26.639,27.361z"/>
		<path fill="#FBD9C1" d="M30.77,24.008c0,0,0.787-8.483,2.494-9.48c1.712-1.005,7.968,4.308,7.968,4.308
			S33.551,24.796,30.77,24.008z"/>
		<path fill="#F9CC8B" d="M90.088,36.949c0,0,1.494-21.831-1.7-24.067c-3.198-2.235-16.328,7.203-16.328,7.203
			S84.505,38.055,90.088,36.949z"/>
		<path fill="#FBD9C1" d="M87.422,31.023c0,0,0.872-12.734-0.991-14.038c-1.867-1.304-9.527,4.201-9.527,4.201
			S84.166,31.668,87.422,31.023z"/>
		<path fill="#F9CC8B" d="M24,29.567c7.172-9.08,17.287-13.554,31.017-13.862c13.55-0.313,30.756,7.748,36,21.556
			c5.157,13.558,2.648,30.259-6.772,37.063c-9.28,6.702-33.385,11.943-53.834,1.534C11.615,66.286,15.531,40.287,24,29.567z"/>
		<path fill="#F2B091" d="M79.757,65.911c-3.674,0.502-6.74-1.997-7.96-5.354c-1.196-3.31,0.419-5.782,3.05-7.804
			c4.457-3.417,11.678-1.621,12.857,4.327C88.558,61.395,83.807,65.359,79.757,65.911z"/>
		<path fill="#5C5449" d="M42.719,42.855c-0.676-1.268-2.257-1.747-3.525-1.066c-1.268,0.676-1.741,2.257-1.065,3.524
			c0.682,1.268,2.263,1.743,3.525,1.063C42.927,45.699,43.401,44.122,42.719,42.855z"/>
		<path fill="#5C5449" d="M73.919,41.56c-0.68-1.272-2.257-1.747-3.525-1.07c-1.267,0.686-1.751,2.263-1.07,3.535
			c0.677,1.265,2.263,1.745,3.535,1.064C74.122,44.409,74.6,42.826,73.919,41.56z"/>
		<path fill="#5C5449" d="M54.833,49.51c3.757-1.393-0.806-5.458-2.652-2.888C50.702,48.691,52.871,50.241,54.833,49.51z"/>
		<path fill="#F2B091" d="M54.494,52.122c0.048,0.236-2.948,3.467-3.347,3.606c-0.09,1.704-0.261,3.583,1.241,4.74
			c1.33,1.02,3.181,0.783,4.139-0.563C57.938,57.928,55.061,54.816,54.494,52.122z"/>
		<g>
			<path fill="#5C5449" d="M59.665,57.085c-1.191,0-2.356-0.333-3.3-0.979c-1.047-0.72-1.689-1.918-2.109-3.39
				c-0.235,1.102-0.588,1.854-1.068,2.313c-1.287,1.242-3.132,1.814-4.929,1.538c-1.404-0.218-2.53-0.936-3.09-1.971
				c-0.152-0.281-0.048-0.632,0.233-0.784c0.279-0.153,0.633-0.048,0.784,0.233c0.387,0.713,1.206,1.215,2.249,1.377
				c1.416,0.215,2.935-0.25,3.95-1.229c0.75-0.72,1.113-2.984,1.08-6.731c-0.003-0.311,0.241-0.568,0.552-0.583
				c0.349-0.035,0.578,0.22,0.604,0.529c0.218,2.575,0.547,6.468,2.398,7.741c1.215,0.831,2.907,1.011,4.416,0.468
				c1.149-0.414,1.96-1.18,2.225-2.101c0.088-0.307,0.407-0.487,0.717-0.396c0.308,0.089,0.484,0.409,0.396,0.717
				c-0.369,1.282-1.442,2.328-2.945,2.869C61.126,56.961,60.39,57.085,59.665,57.085z"/>
		</g>
		<path fill="#C4752E" d="M60.938,21.168c-0.218-0.04-0.412-0.144-0.52-0.376c-0.465-1.036,1.206-2.645,0.404-3.603
			c-0.823-0.984-3.666-0.587-4.69-0.168c-1.155,0.465-1.178,1.244-1.24,2.303c-0.086,1.568-1.416,1.17-2.586,1.247
			c-1.033,0.064-2.714,0.279-3.417,1.15c-0.597,0.732-0.277,2.267,0.488,2.815c0.774,0.552,2.284,0.049,3.159,0.038
			c0.518-0.006,1.222-0.121,1.562,0.406c0.364,0.562,0.067,1.663-0.608,1.813c-1.461,0.328-2.513-0.15-3.782,0.777
			c-1.128,0.833-0.765,2.471,0.271,3.221c1.344,0.963,3.452,0.854,4.981,0.581c0.398,2.14-0.502,4.864,2.261,5.422
			c3.616,0.723,2.858-3.918,2.769-6.014c1.756-0.477,3.75,1.279,5.313-0.167c1.325-1.231,0.552-2.999-0.967-3.604
			c-0.73-0.296-1.595-0.439-2.384-0.466c-0.627-0.021-0.788,0.19-0.998-0.428c-0.658-1.924,1.631-1.296,2.75-1.274
			c0.958,0.018,1.833-0.063,2.379-0.968c0.528-0.871-0.108-1.761-1.031-2.132c-0.923-0.367-2.229-0.493-3.194-0.541
			C61.571,21.187,61.23,21.228,60.938,21.168z"/>
		<path fill="#F2B091" d="M31.908,65.911c3.672,0.502,6.74-1.997,7.96-5.354c1.196-3.31-0.423-5.782-3.052-7.804
			c-4.457-3.417-11.677-1.621-12.856,4.327C23.106,61.395,27.858,65.359,31.908,65.911z"/>
	</g>
</g>
</svg>
