<?xml version="1.0" encoding="utf-8"?>
<!-- Generator: Adobe Illustrator 16.0.0, SVG Export Plug-In . SVG Version: 6.00 Build 0)  -->
<!DOCTYPE svg PUBLIC "-//W3C//DTD SVG 1.1//EN" "http://www.w3.org/Graphics/SVG/1.1/DTD/svg11.dtd">
<svg version="1.1" id="图层_1" xmlns="http://www.w3.org/2000/svg" xmlns:xlink="http://www.w3.org/1999/xlink" x="0px" y="0px"
	 width="64.917px" height="60.101px" viewBox="0 0 64.917 60.101" enable-background="new 0 0 64.917 60.101" xml:space="preserve">
<g>
	<ellipse fill="#507D8A" cx="10.17" cy="53.592" rx="9.461" ry="3.613"/>
	<g>
		<ellipse fill="#507D8A" cx="43.493" cy="53.15" rx="21.424" ry="6.951"/>
		<g>
			<path fill="#3D3D3D" d="M37.402,38.893c4.95-2.552-0.749-8.789-3.134-10.209c-1.6-0.952-5.4-2.551-7.213-1.249
				c-1.606,1.153-1.896,2.821-0.926,4.329c1.137,1.769,2.732,3.238,4.347,4.547C32.302,37.799,34.658,40.307,37.402,38.893z"/>
			<path fill="#F2B091" d="M30.088,31.401c0.619-0.55,0.642-1.433,0.25-2.126c-0.387-0.683-1.04-0.768-1.765-0.615
				c-1.227,0.258-1.969,1.741-1.134,2.805C28.046,32.236,29.408,32.005,30.088,31.401z"/>
			<path fill="#F2B091" d="M26.645,30.576c0.156-0.139,0.162-0.361,0.063-0.537c-0.098-0.173-0.262-0.193-0.445-0.155
				c-0.309,0.064-0.497,0.44-0.286,0.709C26.129,30.786,26.473,30.728,26.645,30.576z"/>
			<path fill="#F2B091" d="M27.339,28.825c0.156-0.139,0.162-0.362,0.063-0.538c-0.098-0.172-0.263-0.193-0.445-0.155
				c-0.31,0.065-0.497,0.44-0.286,0.709C26.824,29.035,27.167,28.977,27.339,28.825z"/>
			<path fill="#F2B091" d="M29.444,28.042c0.156-0.139,0.162-0.362,0.063-0.538c-0.098-0.173-0.263-0.193-0.445-0.155
				c-0.31,0.065-0.497,0.44-0.286,0.709C28.927,28.25,29.271,28.194,29.444,28.042z"/>
		</g>
		<path fill="#3D3D3D" d="M38.538,38.301c-1.89,1.186-1.289,4.512-3.276,6.066c-2.424,1.896-8.925,2.386-5.704,6.781
			c0.707,0.965,2.123,1.286,3.474,1.351c3.878,0.185,9.726-1.312,12.068-5.996c1.679-3.354,0.563-8.659-4.034-8.771
			C39.95,37.705,39.145,37.92,38.538,38.301z"/>
		<path fill="#FFFFFF" d="M49.402,33.81c-1.641-3.321-4.595-7.459-8.686-6.188c-3.915,1.216-4.637,4.659-4.463,8.327
			c0.14,2.942,1.116,6.121,1.961,8.918c0.813,2.692,1.495,5.896,3.738,7.841c2.58,2.235,6.54,0.422,8.34-2.131
			C53.777,45.635,51.797,38.657,49.402,33.81z"/>
		<path fill="#3D3D3D" d="M43.139,31.224c-2.473,3.15-5.718,4.426-9.511,7.43c-2.509,1.987,0.966,7.664,6.091,4.702
			c2.904-1.682,6.051-4.438,6.051-4.438s3.123,5.047,0.189,9.37c-2.299,3.389-9.397,2.291-6.676,7.093
			c1.333,2.352,13.238,1.592,16.514-4.957c2.684-5.363,0.07-17.24-5.547-21.356C48.948,28.112,46.702,26.686,43.139,31.224z"/>
		<path fill="#C1281F" d="M55.542,32.047c0.303-0.475,0.312-1.032,0.244-1.588c-0.11-0.921-0.836-1.273-1.567-1.627
			c-3.051-1.472-6.523-0.674-9.746-0.502c-3.571,0.189-4.691-2.084-8.232-1.835c-3.04,0.214-3.472,3.317-1.862,4.847
			c1.564,1.487,2.871,2.379,4.879,2.867C49.618,36.726,54.489,33.707,55.542,32.047z"/>
		<path fill="#3D3D3D" d="M33.068,7.014c0,0,1.981-6.474,3.471-6.979c1.493-0.505,5.51,4.64,5.51,4.64S35.107,8.079,33.068,7.014z"
			/>
		<path fill="#FBD9C1" d="M35.127,5.947c0,0,1.085-3.551,1.902-3.828c0.818-0.276,3.022,2.545,3.022,2.545
			S36.246,6.529,35.127,5.947z"/>
		<path fill="#3D3D3D" d="M59.311,16.712c0,0,2.566-9.188,1.4-10.426c-1.168-1.237-7.607,1.631-7.607,1.631
			S56.831,16.691,59.311,16.712z"/>
		<path fill="#FBD9C1" d="M58.697,13.948c0,0,1.497-5.361,0.816-6.083c-0.683-0.723-4.438,0.951-4.438,0.951
			S57.249,13.936,58.697,13.948z"/>
		<path fill="#3D3D3D" d="M31.746,7.723c3.864-3.243,8.578-4.26,14.469-3.18c5.812,1.064,12.446,6.026,13.467,12.385
			c1.005,6.242-1.541,13.152-6.165,15.227c-4.555,2.041-15.31,2.151-23.122-4.098C23.214,22.307,27.182,11.552,31.746,7.723z"/>
		<path fill="#333232" d="M59.681,16.928c-0.006-0.039-0.019-0.077-0.025-0.115c0.548,5.923-1.961,12.143-6.307,14.092
			c-4.555,2.041-15.31,2.151-23.122-4.098c-2.151-1.723-3.296-3.896-3.729-6.196c0.219,2.756,1.359,5.414,3.896,7.446
			c7.813,6.249,18.567,6.139,23.122,4.098C58.14,30.081,60.686,23.17,59.681,16.928z"/>
		<path fill="#F2B091" d="M52.343,28.167c-1.613-0.111-2.702-1.449-2.926-2.99c-0.22-1.519,0.69-2.433,1.99-3.063
			c2.206-1.067,5.13,0.339,5.108,2.981C56.5,27.014,54.121,28.287,52.343,28.167z"/>
		<path fill="#F2B091" d="M42.619,20.167c0.011,0.085-1.426,1.061-1.605,1.088c-0.112,0.594-0.268,1.245,0.331,1.733
			c0.531,0.43,1.32,0.427,1.815,0.022c0.574-0.469,0.479-1.351,0.479-1.351S42.689,20.701,42.619,20.167z"/>
		<g>
			<path fill="#C7C8CA" d="M45.083,22.678c-0.242,0-0.481-0.03-0.702-0.088c-1.24-0.321-1.653-1.316-1.746-2.39
				c-0.169,0.327-0.382,0.628-0.649,0.857c-0.544,0.465-1.414,0.628-2.164,0.406c-0.631-0.186-1.074-0.605-1.249-1.183
				c-0.04-0.134,0.036-0.274,0.169-0.315c0.134-0.036,0.274,0.036,0.315,0.169c0.166,0.552,0.64,0.767,0.907,0.845
				c0.584,0.171,1.28,0.046,1.693-0.307c0.784-0.669,1.028-2.209,1.085-2.678c0.002-0.002,0.001-0.003,0.001-0.005
				c0-0.001,0-0.002,0-0.003l0,0c0.02-0.136,0.134-0.247,0.281-0.218c0.139,0.017,0.237,0.14,0.221,0.278
				c-0.001,0.003-0.001,0.006-0.001,0.009c-0.175,1.441-0.434,3.604,1.264,4.045c0.732,0.188,1.702,0.028,2.057-0.648
				c0.066-0.123,0.22-0.17,0.341-0.106c0.124,0.065,0.171,0.218,0.106,0.341C46.65,22.377,45.85,22.678,45.083,22.678z"/>
		</g>
		<path fill="#F2B091" d="M31.912,23.94c1.524,0.539,3.056-0.257,3.871-1.583c0.804-1.307,0.332-2.507-0.612-3.601
			c-1.602-1.854-4.844-1.724-5.872,0.711C28.553,21.234,30.232,23.345,31.912,23.94z"/>
		<path fill="#C7C8CA" d="M38.565,15.051c-0.176-0.601-0.81-0.946-1.41-0.768c-0.601,0.178-0.944,0.811-0.767,1.412
			s0.812,0.942,1.41,0.765C38.403,16.284,38.745,15.653,38.565,15.051z"/>
		<path fill="#C7C8CA" d="M52.001,17.251c-0.179-0.602-0.81-0.944-1.411-0.767c-0.602,0.179-0.947,0.813-0.77,1.414
			c0.178,0.6,0.812,0.945,1.416,0.769C51.835,18.487,52.18,17.853,52.001,17.251z"/>
		<path fill="#F2B091" d="M43.15,18.961c1.727-0.264,0.137-2.401-0.878-1.469C41.458,18.247,42.247,19.102,43.15,18.961z"/>
		<path fill="#3D3D3D" d="M54.757,47.792c-2.747,1.761,1.484,5.556,3.553,6.977c1.287,0.888,2.931,1.548,3.364-0.464
			c0.42-1.969-1.097-3.295-2.401-4.475C58.791,49.395,55.887,47.069,54.757,47.792z"/>
		<g>
			<g>
				<g>
					<g>
						<path fill="#868280" d="M33.792,43.54c-0.135,0-0.261-0.085-0.307-0.219c-0.058-0.17,0.033-0.354,0.202-0.411
							c0.395-0.134,1.078-0.62,1.221-0.867c0.088-0.156,0.287-0.209,0.441-0.119c0.155,0.089,0.208,0.286,0.119,0.441
							c-0.239,0.417-1.064,0.985-1.572,1.158C33.862,43.535,33.827,43.54,33.792,43.54z"/>
					</g>
				</g>
				<g>
					<g>
						<path fill="#868280" d="M32.872,41.811c-0.136,0-0.262-0.085-0.307-0.221c-0.057-0.17,0.035-0.353,0.204-0.409
							c0.39-0.13,1.075-0.617,1.223-0.868c0.091-0.155,0.292-0.207,0.442-0.116c0.154,0.091,0.206,0.288,0.116,0.442
							c-0.247,0.422-1.073,0.987-1.576,1.155C32.94,41.806,32.906,41.811,32.872,41.811z"/>
					</g>
				</g>
			</g>
		</g>
		<g>
			<g>
				<g>
					<g>
						<path fill="#868280" d="M39.014,56.236c-0.168,0-0.311-0.13-0.322-0.3c-0.014-0.179,0.121-0.333,0.299-0.346
							c0.415-0.03,1.199-0.329,1.399-0.532c0.126-0.128,0.331-0.13,0.457-0.004c0.128,0.125,0.13,0.33,0.004,0.457
							c-0.337,0.344-1.279,0.686-1.813,0.724C39.03,56.236,39.022,56.236,39.014,56.236z"/>
					</g>
				</g>
				<g>
					<g>
						<path fill="#868280" d="M38.558,54.332c-0.169,0-0.312-0.131-0.322-0.302c-0.013-0.178,0.122-0.332,0.301-0.344
							c0.409-0.028,1.196-0.327,1.402-0.533c0.125-0.127,0.332-0.127,0.457,0c0.127,0.126,0.127,0.331,0,0.457
							c-0.345,0.346-1.287,0.686-1.816,0.721C38.573,54.332,38.565,54.332,38.558,54.332z"/>
					</g>
				</g>
			</g>
		</g>
		<path fill="#F2B091" d="M34.703,48.677c-0.127-0.818-0.856-1.316-1.651-1.363c-0.783-0.045-1.209,0.458-1.474,1.149
			c-0.448,1.171,0.396,2.599,1.742,2.474C34.297,50.845,34.841,49.577,34.703,48.677z"/>
		<g>
			<path fill="#F2B091" d="M31.687,50.965c0.003-0.209-0.158-0.363-0.354-0.408c-0.194-0.044-0.319,0.063-0.415,0.225
				c-0.16,0.271-0.01,0.664,0.331,0.689C31.495,51.488,31.684,51.195,31.687,50.965z"/>
			<path fill="#F2B091" d="M30.861,49.594c0.003-0.209-0.158-0.364-0.355-0.409c-0.193-0.044-0.32,0.063-0.415,0.225
				c-0.16,0.272-0.009,0.664,0.331,0.689C30.668,50.117,30.858,49.824,30.861,49.594z"/>
			<path fill="#F2B091" d="M31.442,47.897c0.003-0.209-0.158-0.364-0.355-0.409c-0.193-0.044-0.319,0.064-0.415,0.225
				c-0.16,0.272-0.009,0.664,0.331,0.689C31.249,48.419,31.438,48.127,31.442,47.897z"/>
		</g>
		<g>
			<g>
				<path fill="#DA381C" d="M53.817,33.505c0,0,1.581-6.867,4.122-5.546c2.543,1.325,3.792,5.157,3.301,6.16
					C60.748,35.124,56.567,35.324,53.817,33.505z"/>
				<path fill="#C1281F" d="M58.219,28.134c-0.002-0.003-0.003-0.005-0.003-0.009c-0.093-0.057-0.18-0.116-0.277-0.166
					c-2.541-1.321-4.122,5.546-4.122,5.546S58.936,29.785,58.219,28.134z"/>
			</g>
			<g>
				<path fill="#DA381C" d="M53.943,33.504c0,0-7.051-2.787-7.338-0.13c-0.285,2.663,2.419,5.808,3.6,6.021
					C51.384,39.607,53.977,36.605,53.943,33.504z"/>
				<path fill="#C1281F" d="M46.6,33.686c-0.004-0.004-0.004-0.008-0.007-0.009c0.002-0.101,0.003-0.201,0.012-0.303
					c0.287-2.657,7.338,0.13,7.338,0.13S47.661,35.174,46.6,33.686z"/>
			</g>
			<path fill="#DA381C" d="M54.88,34.193c0.292-0.581,0.016-1.489-0.62-1.85c-0.689-0.391-1.516,0.244-1.494,0.937
				c0.023,0.791,0.957,1.704,1.727,1.306C54.671,34.494,54.799,34.357,54.88,34.193z"/>
		</g>
	</g>
	<g>
		<g>
			<path fill="#A6765C" d="M5.092,47.355c0,0-1.004-4.902-2.361-4.432C1.373,43.394,3.137,46.098,5.092,47.355z"/>
			<path fill="#A6765C" d="M4.988,47.248c0,0-4.466-2.258-4.94-0.901C-0.428,47.701,2.788,48,4.988,47.248z"/>
			<g>
				<g>
					<path fill="#A6765C" d="M10.748,55.41c-0.48-0.146-0.914-0.278-1.348-0.45l-0.125-0.05l-0.021-0.133
						c-0.038-0.241-0.06-0.891-0.083-1.578c-0.02-0.57-0.04-1.159-0.067-1.43L9.57,51.72c0.03,0.286,0.05,0.857,0.07,1.462
						c0.019,0.543,0.037,1.101,0.063,1.391c0.375,0.142,0.758,0.26,1.179,0.386L10.748,55.41z"/>
				</g>
			</g>
			<g>
				<g>
					<path fill="#A6765C" d="M12.979,55.048c-0.48-0.146-0.914-0.278-1.348-0.45l-0.125-0.05l-0.021-0.133
						c-0.038-0.241-0.06-0.891-0.083-1.578c-0.02-0.57-0.04-1.159-0.067-1.43l0.467-0.049c0.03,0.286,0.05,0.857,0.07,1.462
						c0.019,0.543,0.037,1.101,0.063,1.391c0.375,0.142,0.758,0.26,1.179,0.386L12.979,55.048z"/>
				</g>
			</g>
			<path fill="#FBDBB2" d="M12.81,52.18c-1.951,0.824-4.82,0.394-6.424-1.002c-1.552-1.354-3.469-3.248-2.112-5.392
				c0.755-1.188,2.207-1.459,3.3-2.303c1.376-1.069,1.115-2.62,1.548-4.156c0.698-2.478,2.825-3.955,5.386-3.302
				c3.42,0.871,3.895,5.969,3.721,8.729C18.042,47.714,15.609,51,12.81,52.18z"/>
			<path fill="#FFFFFF" d="M12.014,46.633c0,0-1.405,0.791-2.697,0.4c-1.293-0.389-2.609-1.661-2.488-0.742
				C6.95,47.206,9.968,49.372,12.014,46.633z"/>
			<path fill="#FFFFFF" d="M12.387,47.594c0,0-0.764,1.418-2.063,1.779c-1.302,0.363-3.093-0.01-2.501,0.702
				C8.413,50.786,12.124,51.002,12.387,47.594z"/>
			<path fill="#F2B091" d="M16.73,38.055c0,0,1.47-0.643,1.796-0.289c0.326,0.351-0.901,1.943-1.186,1.854
				C17.057,39.532,16.555,38.937,16.73,38.055z"/>
		</g>
	</g>
	<path fill="#F2B091" d="M12.507,44.534c0.925,0.326,1.853-0.155,2.347-0.96c0.487-0.792,0.201-1.519-0.371-2.182
		c-0.971-1.124-2.936-1.045-3.559,0.431C10.472,42.893,11.49,44.173,12.507,44.534z"/>
	<circle fill="#5C5449" cx="14.098" cy="38.761" r="0.612"/>
	<g>
		<path fill="#A6765C" d="M9.865,32.055c0.878-0.581-0.258-1.844-0.812-0.932C8.637,31.807,9.117,32.549,9.865,32.055z"/>
		<path fill="#A6765C" d="M12.23,31.208c0.88-0.581-0.256-1.844-0.811-0.932C11.005,30.96,11.484,31.703,12.23,31.208z"/>
		<g>
			<path fill="#A6765C" d="M12.499,30.589c-0.025,0.025-0.057,0.042-0.095,0.043c-0.076,0.005-0.141-0.054-0.145-0.13
				c-0.031-0.564-0.387-1.386-0.646-1.983l-0.013-0.027c-0.173,0.035-0.354,0.07-0.538,0.104c-0.614,0.115-1.246,0.231-1.769,0.446
				c0.177,0.521,0.383,1.049,0.584,1.561c0.097,0.246,0.193,0.494,0.287,0.739c0.026,0.072-0.01,0.151-0.081,0.179
				c-0.069,0.027-0.15-0.01-0.176-0.08c-0.095-0.245-0.189-0.491-0.288-0.738c-0.216-0.552-0.44-1.124-0.628-1.693
				c-0.021-0.065,0.01-0.139,0.074-0.168c0.573-0.26,1.271-0.391,1.944-0.517c0.222-0.041,0.439-0.082,0.645-0.127
				c0.063-0.013,0.129,0.021,0.155,0.081l0.056,0.129c0.267,0.619,0.634,1.465,0.668,2.08
				C12.537,30.529,12.522,30.563,12.499,30.589z"/>
		</g>
	</g>
</g>
</svg>
