<?xml version="1.0" encoding="utf-8"?>
<!-- Generator: Adobe Illustrator 16.0.0, SVG Export Plug-In . SVG Version: 6.00 Build 0)  -->
<!DOCTYPE svg PUBLIC "-//W3C//DTD SVG 1.1//EN" "http://www.w3.org/Graphics/SVG/1.1/DTD/svg11.dtd">
<svg version="1.1" id="图层_1" xmlns="http://www.w3.org/2000/svg" xmlns:xlink="http://www.w3.org/1999/xlink" x="0px" y="0px"
	 width="62.802px" height="65.786px" viewBox="0 0 62.802 65.786" enable-background="new 0 0 62.802 65.786" xml:space="preserve">
<g>
	<path fill="#F9CC8B" d="M20.83,45.403c-0.845,2.879-6.773-0.286-8.561-1.744c-1.115-0.908-2.461-2.343-0.909-3.425
		c1.335-0.931,3.642,0.451,5.02,1.3C16.889,41.848,21.177,44.219,20.83,45.403z"/>
	<path fill="#F9CC8B" d="M19.128,7.639c0,0,0.629-6.742,1.986-7.539c1.359-0.797,6.334,3.428,6.334,3.428S21.341,8.267,19.128,7.639
		z"/>
	<path fill="#FBD9C1" d="M20.929,6.176c0,0,0.344-3.698,1.088-4.134c0.746-0.437,3.475,1.879,3.475,1.879S22.142,6.52,20.929,6.176z
		"/>
	<path fill="#F9CC8B" d="M46.792,11.819c0,0,0.652-9.519-0.74-10.494c-1.395-0.975-7.119,3.14-7.119,3.14
		S44.358,12.301,46.792,11.819z"/>
	<path fill="#FBD9C1" d="M45.63,9.236c0,0,0.381-5.553-0.432-6.122c-0.814-0.569-4.154,1.832-4.154,1.832S44.21,9.517,45.63,9.236z"
		/>
	<path fill="#FFFFFF" d="M43.98,25.487c0,0-3.557,25.953-9.955,25.598c-6.4-0.355-10.846-10.132-9.955-15.109
		C24.959,30.998,36.158,21.932,43.98,25.487z"/>
	<path fill="#F9CC8B" d="M17.978,8.6c3.127-3.958,7.537-5.91,13.523-6.044c5.908-0.136,13.41,3.379,15.697,9.399
		c2.248,5.911,1.154,13.193-2.953,16.16c-4.047,2.922-14.557,5.208-23.473,0.669C12.577,24.61,14.284,13.274,17.978,8.6z"/>
	<path fill="#F9CC8B" d="M32.281,29.069c2.875,4.583,6.389,5.463,9.583,8.292c2.074,1.837-0.702,6.938-6.068,3.837
		c-3.041-1.76-6.335-4.646-6.335-4.646s-3.27,5.283-0.198,9.811c2.407,3.547,8.296,2.781,6.771,6.908
		c-0.98,2.654-13.643,2.184-17.071-4.672c-2.81-5.615-0.074-18.051,5.808-22.36C26.134,25.24,29.071,23.952,32.281,29.069z"/>
	<path fill="#F7C27A" d="M47.198,11.955c-0.609-1.603-1.595-3.022-2.815-4.248c0.682,0.893,1.249,1.863,1.648,2.915
		c2.248,5.911,1.154,13.193-2.953,16.16c-4.047,2.922-14.557,5.208-23.473,0.669c-0.978-0.498-1.81-1.1-2.519-1.778
		c0.9,1.236,2.107,2.307,3.686,3.111c8.916,4.538,19.426,2.252,23.473-0.669C48.353,25.148,49.446,17.866,47.198,11.955z"/>
	<path fill="#F2B091" d="M42.288,24.447c-1.602,0.219-2.939-0.871-3.471-2.335c-0.521-1.443,0.184-2.521,1.33-3.402
		c1.943-1.491,5.092-0.708,5.605,1.886C46.126,22.478,44.054,24.206,42.288,24.447z"/>
	<circle fill="#5C5449" cx="25.139" cy="14.93" r="1.136"/>
	<circle fill="#5C5449" cx="38.741" cy="14.366" r="1.137"/>
	<path fill="#5C5449" d="M31.421,17.295c1.639-0.607-0.352-2.379-1.156-1.26C29.62,16.938,30.565,17.615,31.421,17.295z"/>
	<path fill="#F08860" d="M31.272,18.435c0.021,0.103-1.285,1.512-1.459,1.572c-0.039,0.743-0.113,1.562,0.541,2.067
		c0.58,0.445,1.362,0.323,1.805-0.246c0.513-0.66,0.31-1.722,0.31-1.722S31.408,19.077,31.272,18.435z"/>
	<g>
		<path fill="#5C5449" d="M28.845,20.434c-0.061,0-0.121-0.002-0.182-0.007c-0.648-0.052-1.166-0.377-1.456-0.914
			c-0.066-0.123-0.021-0.276,0.102-0.342c0.121-0.067,0.276-0.021,0.342,0.102c0.207,0.381,0.581,0.612,1.054,0.65
			c0.598,0.046,1.267-0.228,1.609-0.672c0.625-0.809,0.552-2.356,0.513-2.823l-0.001-0.006c0,0,0,0,0,0
			c-0.012-0.139,0.092-0.261,0.23-0.272c0.155-0.015,0.262,0.092,0.273,0.23v0c0,0.002,0,0.005,0,0.008l0.012,0.138
			c0.104,1.26,0.224,2.688,1.469,3.188c0.481,0.193,1.063,0.177,1.515-0.044c0.251-0.123,0.579-0.368,0.715-0.837
			c0.038-0.134,0.187-0.21,0.312-0.173c0.135,0.039,0.212,0.179,0.173,0.313c-0.147,0.513-0.485,0.911-0.978,1.151
			c-0.576,0.282-1.314,0.305-1.924,0.059c-0.792-0.317-1.212-0.913-1.448-1.599c-0.098,0.356-0.244,0.697-0.46,0.976
			C30.301,20.096,29.567,20.434,28.845,20.434z"/>
	</g>
	<path fill="#C4752E" d="M33.333,4.626c-0.096-0.018-0.18-0.063-0.227-0.165c-0.203-0.452,0.525-1.153,0.176-1.569
		c-0.359-0.431-1.598-0.257-2.045-0.075c-0.504,0.203-0.514,0.543-0.541,1.004c-0.037,0.685-0.617,0.511-1.127,0.544
		c-0.451,0.028-1.184,0.123-1.49,0.502c-0.26,0.319-0.121,0.988,0.213,1.227c0.338,0.241,0.996,0.022,1.377,0.017
		c0.227-0.003,0.533-0.054,0.682,0.176c0.158,0.246,0.029,0.726-0.266,0.792c-0.637,0.143-1.096-0.066-1.648,0.339
		c-0.492,0.362-0.334,1.078,0.117,1.404c0.586,0.419,1.506,0.372,2.172,0.252c0.174,0.933-0.219,2.122,0.986,2.365
		c1.576,0.314,1.246-1.708,1.207-2.623c0.766-0.207,1.635,0.559,2.316-0.072c0.578-0.537,0.24-1.308-0.422-1.572
		c-0.318-0.129-0.695-0.191-1.039-0.203c-0.273-0.009-0.344,0.083-0.436-0.186c-0.287-0.838,0.711-0.565,1.199-0.555
		c0.418,0.008,0.799-0.028,1.037-0.422c0.23-0.381-0.047-0.768-0.449-0.929s-0.973-0.215-1.393-0.237
		C33.608,4.633,33.46,4.651,33.333,4.626z"/>
	<path fill="#8FB3BC" d="M32.144,40.303c1.607-5.177,4.842-12.299,12.402-17.543c7.771-5.389,12.018-3.216,12.43,1.517
		c0.414,4.733-2.004,12.505-6.814,19.767c-4.953,7.48-11.986,11.521-11.986,11.521s0.953,9.294-1.613,8.923
		c-2.566-0.369-4.871-7.694-4.871-7.694s-8.015,2.92-8.318,0.032c-0.341-3.234,7.309-5.785,7.309-5.785S30.542,45.481,32.144,40.303
		z"/>
	<g>
		<path fill="#759BA1" d="M49.06,41.959c-0.491,0-0.984-0.11-1.338-0.361c-0.353-0.25-0.591-0.715-0.716-1.244
			c-0.004,0-0.009,0-0.013,0c-0.803,0-1.515-0.351-2.025-1.027c-0.362-0.481-0.599-1.123-0.656-1.81
			c-0.737-0.095-1.59-0.366-2.128-0.798c-0.569-0.458-0.781-1.146-0.736-1.835c-0.688-0.142-1.454-0.423-1.822-0.983
			c-0.234-0.356-0.278-0.784-0.127-1.237l0.744,0.249c-0.099,0.296-0.025,0.459,0.038,0.556c0.208,0.316,0.745,0.525,1.324,0.645
			c0.096-0.279,0.231-0.545,0.4-0.776c0.438-0.603,1.456-0.881,2.015-0.553c0.156,0.092,0.637,0.456,0.25,1.294
			c-0.358,0.775-1.267,0.982-2.003,0.922c-0.013,0-0.026-0.002-0.039-0.003c-0.018,0.421,0.104,0.833,0.448,1.11
			c0.388,0.313,1.056,0.529,1.65,0.619c0.081-0.682,0.348-1.365,0.847-1.946c0.494-0.577,1.193-0.786,1.871-0.56
			c0.606,0.201,1.04,0.717,1.079,1.283c0.024,0.361-0.092,1.045-1.143,1.561c-0.596,0.291-1.225,0.455-1.875,0.485
			c0.057,0.5,0.23,0.961,0.489,1.304c0.34,0.451,0.787,0.691,1.309,0.716c-0.017-0.505,0.059-1.005,0.225-1.39
			c0.311-0.72,0.906-1.047,1.632-0.902c0.45,0.09,0.737,0.387,0.787,0.814c0.084,0.718-0.556,1.66-1.138,1.928
			c-0.21,0.096-0.417,0.171-0.622,0.226c0.088,0.33,0.225,0.597,0.388,0.712c0.451,0.32,1.421,0.264,1.868-0.006l0.404,0.674
			C50.095,41.836,49.578,41.959,49.06,41.959z M48.429,38.027c-0.202,0-0.419,0.091-0.581,0.465c-0.121,0.28-0.17,0.625-0.166,0.97
			c0.131-0.041,0.264-0.092,0.4-0.154c0.299-0.138,0.727-0.775,0.686-1.125c-0.006-0.054-0.012-0.105-0.162-0.135
			C48.549,38.036,48.489,38.027,48.429,38.027z M46.51,34.919c-0.212,0-0.486,0.075-0.741,0.372
			c-0.374,0.437-0.581,0.953-0.653,1.473c0.526-0.031,1.036-0.167,1.52-0.404c0.468-0.229,0.725-0.521,0.705-0.803
			c-0.017-0.248-0.24-0.49-0.543-0.592C46.732,34.944,46.632,34.919,46.51,34.919z M42.404,34.224
			c0.256,0.013,0.935-0.004,1.152-0.474c0.082-0.178,0.079-0.27,0.071-0.288c-0.008-0.007-0.077-0.046-0.249-0.031
			c-0.286,0.023-0.604,0.181-0.739,0.367C42.551,33.921,42.47,34.067,42.404,34.224z"/>
	</g>
	<g>
		<path fill="#759BA1" d="M41.102,50.75c-0.403,0-0.808-0.09-1.099-0.297c-0.276-0.195-0.469-0.551-0.575-0.961
			c-0.635-0.014-1.197-0.299-1.604-0.84c-0.281-0.373-0.468-0.865-0.524-1.395c-0.576-0.085-1.228-0.299-1.646-0.635
			c-0.45-0.362-0.63-0.896-0.612-1.438c-0.537-0.119-1.121-0.349-1.412-0.792c-0.139-0.211-0.27-0.563-0.109-1.044l0.744,0.249
			c-0.065,0.195-0.023,0.297,0.021,0.363c0.124,0.189,0.46,0.352,0.913,0.455c0.076-0.202,0.178-0.393,0.301-0.563
			c0.365-0.503,1.219-0.734,1.691-0.457c0.285,0.167,0.495,0.55,0.23,1.124c-0.287,0.626-0.983,0.815-1.592,0.777
			c0.01,0.282,0.106,0.544,0.317,0.714c0.271,0.217,0.74,0.377,1.17,0.453c0.078-0.521,0.291-1.039,0.672-1.484
			c0.411-0.479,0.996-0.65,1.56-0.464c0.508,0.169,0.871,0.604,0.903,1.081c0.017,0.246-0.042,0.863-0.943,1.306
			c-0.45,0.221-0.924,0.35-1.413,0.385c0.052,0.342,0.177,0.655,0.356,0.893c0.23,0.306,0.528,0.479,0.875,0.52
			c-0.002-0.376,0.059-0.743,0.182-1.03c0.259-0.596,0.776-0.879,1.376-0.758c0.386,0.077,0.643,0.344,0.686,0.712
			c0.071,0.613-0.457,1.376-0.942,1.599c-0.141,0.064-0.279,0.117-0.417,0.158c0.064,0.206,0.152,0.365,0.247,0.433
			c0.321,0.226,1.045,0.19,1.373-0.009l0.404,0.674C41.946,50.651,41.524,50.75,41.102,50.75z M40.609,47.674
			c-0.152,0-0.279,0.069-0.382,0.308c-0.078,0.183-0.116,0.394-0.123,0.608c0.063-0.023,0.128-0.05,0.194-0.08
			c0.134-0.061,0.352-0.313,0.448-0.576c0.055-0.146,0.044-0.225,0.038-0.238C40.723,47.683,40.664,47.674,40.609,47.674z
			 M39.099,45.229c-0.15,0-0.338,0.056-0.516,0.264c-0.258,0.3-0.41,0.65-0.477,1.008c0.364-0.035,0.718-0.136,1.055-0.301
			c0.335-0.164,0.52-0.363,0.507-0.549c-0.011-0.158-0.166-0.322-0.368-0.389C39.247,45.245,39.178,45.229,39.099,45.229z
			 M36.754,44.022c-0.079,0-0.475,0.092-0.621,0.293c-0.046,0.063-0.087,0.131-0.123,0.202c0.285-0.008,0.591-0.094,0.697-0.324
			c0.056-0.121,0.051-0.171,0.051-0.171C36.756,44.022,36.755,44.022,36.754,44.022z"/>
	</g>
	<circle fill="#5C5449" cx="47.65" cy="24.515" r="0.999"/>
	<path fill="#F2B091" d="M21.425,24.447c1.602,0.219,2.939-0.871,3.471-2.335c0.521-1.443-0.184-2.521-1.33-3.402
		c-1.943-1.491-5.092-0.708-5.605,1.886C17.587,22.478,19.659,24.206,21.425,24.447z"/>
	<path fill="#F9CC8B" d="M35.657,41.116c-1.761-1.019-3.39-2.258-4.97-3.532c-0.601-0.483-1.647-1.03-1.274-1.922
		c0.297-0.71,1.351-1.325,1.997-1.681c0.88-0.483,2.747-1.423,3.746-1.495c1.083,1,5.415,3.622,6.591,4.663
		C43.729,38.904,40.782,44.078,35.657,41.116z"/>
	<path fill="#759BA1" d="M43.656,25.653c0,0,0.432,0.601,1.186,1.33c0.383,0.358,0.833,0.763,1.363,1.129
		c0.251,0.201,0.547,0.356,0.825,0.542c0.282,0.182,0.596,0.324,0.894,0.489c0.313,0.136,0.619,0.293,0.935,0.415
		c0.322,0.102,0.626,0.247,0.936,0.343c0.313,0.083,0.614,0.182,0.901,0.273c0.294,0.072,0.571,0.14,0.828,0.203
		c0.514,0.147,0.958,0.2,1.268,0.28c0.312,0.077,0.49,0.121,0.49,0.121s-0.179,0.035-0.497,0.079
		c-0.317,0.031-0.777,0.125-1.329,0.091c-0.276-0.007-0.579-0.004-0.896-0.039c-0.314-0.045-0.649-0.091-0.993-0.157
		c-0.341-0.078-0.691-0.176-1.044-0.288c-0.348-0.123-0.69-0.281-1.039-0.424c-0.662-0.362-1.313-0.754-1.829-1.244
		c-0.535-0.462-0.948-0.984-1.255-1.452C43.779,26.4,43.656,25.653,43.656,25.653z"/>
	<path fill="#759BA1" d="M26.594,55.778c0,0,0.328-0.325,0.872-0.691c0.541-0.374,1.297-0.795,2.085-1.142
		c0.79-0.341,1.612-0.609,2.255-0.751c0.639-0.148,1.101-0.166,1.101-0.166s-0.327,0.326-0.872,0.693
		c-0.541,0.374-1.297,0.793-2.085,1.14c-0.79,0.341-1.612,0.607-2.255,0.749C27.055,55.759,26.594,55.778,26.594,55.778z"/>
	<path fill="#759BA1" d="M36.199,61.848c0,0-0.244-0.393-0.48-1.004c-0.243-0.611-0.485-1.441-0.647-2.287
		c-0.156-0.846-0.235-1.707-0.229-2.365c-0.003-0.656,0.083-1.109,0.083-1.109s0.245,0.391,0.481,1.004
		c0.244,0.61,0.484,1.441,0.646,2.286c0.156,0.847,0.233,1.708,0.229,2.365C36.284,61.395,36.199,61.848,36.199,61.848z"/>
	<path fill="#F9CC8B" d="M28.079,46.022c0.384,0.111,0.756,0.258,1.075,0.467c0.686,0.446,1.193,1.123,1.882,1.579
		c2.005,1.329,6.528,1.128,5.032,5.247c-0.413,1.138-2.287,1.344-3.287,1.441c-2.89,0.279-5.972-0.307-8.605-1.504
		c-1.407-0.639-2.738-1.497-3.796-2.634c-0.554-0.596-1.257-1.28-0.873-2.123c0.418-0.919,1.488-1.638,2.362-2.058
		c1.579-0.755,3.473-0.986,5.189-0.65C27.388,45.851,27.737,45.922,28.079,46.022z"/>
	<g>
		<g>
			<g>
				<path fill="#5C5449" d="M42.098,40.72c-0.091,0-0.179-0.05-0.224-0.136c-0.149-0.284-0.609-0.752-0.821-0.834
					c-0.13-0.051-0.194-0.197-0.144-0.327s0.194-0.196,0.327-0.144c0.354,0.137,0.893,0.703,1.085,1.07
					c0.064,0.124,0.017,0.277-0.106,0.342C42.178,40.711,42.138,40.72,42.098,40.72z"/>
			</g>
		</g>
		<g>
			<g>
				<path fill="#5C5449" d="M40.879,41.642c-0.091,0-0.179-0.05-0.224-0.136c-0.149-0.284-0.609-0.752-0.821-0.834
					c-0.13-0.051-0.194-0.197-0.144-0.327c0.051-0.131,0.195-0.196,0.327-0.144c0.354,0.137,0.893,0.703,1.085,1.07
					c0.064,0.124,0.017,0.277-0.106,0.342C40.959,41.633,40.919,41.642,40.879,41.642z"/>
			</g>
		</g>
	</g>
	<g>
		<g>
			<g>
				<path fill="#5C5449" d="M35.723,53.616c-0.401,0-0.883-0.076-1.124-0.217c-0.12-0.07-0.16-0.225-0.09-0.346
					c0.071-0.12,0.228-0.158,0.346-0.09c0.195,0.114,0.848,0.185,1.164,0.125c0.134-0.025,0.27,0.064,0.295,0.201
					c0.026,0.137-0.064,0.27-0.201,0.295C36.004,53.606,35.868,53.616,35.723,53.616z"/>
			</g>
		</g>
		<g>
			<g>
				<path fill="#5C5449" d="M35.689,52.088c-0.4,0-0.883-0.076-1.124-0.217c-0.12-0.07-0.16-0.226-0.09-0.346
					c0.071-0.121,0.228-0.159,0.346-0.09c0.195,0.114,0.849,0.184,1.164,0.125c0.134-0.027,0.27,0.064,0.295,0.201
					c0.026,0.137-0.064,0.27-0.201,0.295C35.971,52.078,35.835,52.088,35.689,52.088z"/>
			</g>
		</g>
	</g>
	<g>
		<path fill="#FFFFFF" d="M49.211,55.985c-0.069,0-0.14-0.018-0.202-0.057c-0.186-0.111-0.246-0.353-0.134-0.538l9.975-16.535
			c0.112-0.187,0.356-0.245,0.538-0.134c0.186,0.112,0.246,0.354,0.134,0.539l-9.975,16.535
			C49.474,55.917,49.344,55.985,49.211,55.985z"/>
	</g>
	<g>
		<path fill="#FFFFFF" d="M50.523,61.842c-0.069,0-0.14-0.019-0.202-0.057c-0.186-0.111-0.246-0.354-0.134-0.539l5.211-8.641
			c0.111-0.186,0.355-0.244,0.538-0.133c0.186,0.111,0.246,0.353,0.134,0.538l-5.211,8.642
			C50.786,61.774,50.656,61.842,50.523,61.842z"/>
	</g>
	<g>
		<path fill="#FFFFFF" d="M4.399,27.075c-0.07,0-0.141-0.019-0.204-0.058c-0.185-0.112-0.243-0.354-0.131-0.539l5.385-8.853
			c0.112-0.186,0.355-0.243,0.539-0.131c0.185,0.112,0.243,0.354,0.131,0.539l-5.385,8.853C4.661,27.007,4.531,27.075,4.399,27.075z
			"/>
	</g>
	<g>
		<path fill="#FFFFFF" d="M0.393,41.288c-0.069,0-0.14-0.019-0.202-0.057c-0.186-0.111-0.246-0.354-0.134-0.539l9.975-16.535
			c0.111-0.186,0.355-0.244,0.538-0.133c0.186,0.112,0.246,0.353,0.134,0.539L0.729,41.098C0.655,41.219,0.525,41.288,0.393,41.288z
			"/>
	</g>
	<path fill="#F4D321" d="M58.352,59.104c0.314-0.969,0.83-0.969,1.145,0s1.406,1.762,2.425,1.762s1.178,0.49,0.354,1.089
		c-0.824,0.599-1.241,1.882-0.927,2.851s-0.103,1.271-0.927,0.673c-0.823-0.599-2.173-0.599-2.996,0
		c-0.824,0.599-1.241,0.296-0.927-0.673s-0.103-2.252-0.927-2.851c-0.823-0.599-0.664-1.089,0.354-1.089
		S58.037,60.073,58.352,59.104z"/>
	<path fill="#F4D321" d="M4.444,46.485c0.314-0.969,0.83-0.969,1.145,0s1.406,1.762,2.425,1.762s1.178,0.49,0.354,1.088
		c-0.824,0.6-1.241,1.883-0.927,2.852s-0.103,1.271-0.927,0.672c-0.823-0.598-2.173-0.598-2.996,0
		c-0.824,0.6-1.241,0.297-0.927-0.672s-0.103-2.252-0.927-2.852c-0.823-0.598-0.664-1.088,0.354-1.088S4.13,47.454,4.444,46.485z"/>
	<path fill="#F4D321" d="M9.135,9.14c0.281-0.864,0.74-0.864,1.021,0c0.28,0.864,1.253,1.571,2.162,1.571
		c0.908,0,1.05,0.437,0.314,0.971c-0.734,0.534-1.106,1.678-0.825,2.542c0.281,0.864-0.091,1.134-0.825,0.6
		c-0.735-0.534-1.938-0.534-2.674,0c-0.734,0.534-1.106,0.264-0.825-0.6c0.281-0.864-0.091-2.008-0.825-2.542
		c-0.735-0.534-0.594-0.971,0.314-0.971C7.882,10.71,8.854,10.003,9.135,9.14z"/>
	<circle fill="#FFFFFF" cx="9.316" cy="33.021" r="1.313"/>
	<circle fill="#FFFFFF" cx="2.375" cy="17.693" r="1.313"/>
	<circle fill="#FFFFFF" cx="61.222" cy="49.654" r="1.313"/>
	<g>
		<defs>
			<path id="SVGID_1_" d="M32.281,29.069c2.875,4.583,6.389,5.463,9.583,8.292c2.074,1.837-0.702,6.938-6.068,3.837
				c-3.041-1.76-6.335-4.646-6.335-4.646s-3.27,5.283-0.198,9.811c2.407,3.547,8.296,2.781,6.771,6.908
				c-0.98,2.654-13.643,2.184-17.071-4.672c-2.81-5.615-0.074-18.051,5.808-22.36C26.134,25.24,29.071,23.952,32.281,29.069z"/>
		</defs>
		<clipPath id="SVGID_2_">
			<use xlink:href="#SVGID_1_"  overflow="visible"/>
		</clipPath>
		<path clip-path="url(#SVGID_2_)" fill="#C4752E" d="M22.498,33.557c-0.449,0.274-1.242,0.191-1.758,0.167
			c-0.492-0.024-1.19-0.093-1.522-0.538c-0.394-0.529-0.066-1.226,0.516-1.397c0.557-0.164,1.368-0.126,1.92,0.049
			C22.265,32.033,23.461,32.969,22.498,33.557z"/>
		<path clip-path="url(#SVGID_2_)" fill="#C4752E" d="M21.314,36.971c-0.449,0.275-1.242,0.192-1.758,0.168
			c-0.492-0.025-1.19-0.093-1.522-0.539c-0.394-0.529-0.066-1.226,0.516-1.396c0.557-0.164,1.368-0.126,1.92,0.049
			C21.081,35.448,22.277,36.383,21.314,36.971z"/>
		<path clip-path="url(#SVGID_2_)" fill="#C4752E" d="M20.604,40.488c-0.449,0.274-1.242,0.192-1.758,0.167
			c-0.492-0.024-1.19-0.092-1.522-0.538c-0.394-0.529-0.066-1.226,0.516-1.397c0.557-0.163,1.368-0.125,1.92,0.05
			C20.371,38.963,21.567,39.9,20.604,40.488z"/>
	</g>
</g>
</svg>
