<?xml version="1.0" encoding="utf-8"?>
<!-- Generator: Adobe Illustrator 16.0.0, SVG Export Plug-In . SVG Version: 6.00 Build 0)  -->
<!DOCTYPE svg PUBLIC "-//W3C//DTD SVG 1.1//EN" "http://www.w3.org/Graphics/SVG/1.1/DTD/svg11.dtd">
<svg version="1.1" id="图层_1" xmlns="http://www.w3.org/2000/svg" xmlns:xlink="http://www.w3.org/1999/xlink" x="0px" y="0px"
	 width="68.04px" height="47.661px" viewBox="0 0 68.04 47.661" enable-background="new 0 0 68.04 47.661" xml:space="preserve">
<g>
	<ellipse fill="#507D8A" cx="56.058" cy="44.048" rx="9.461" ry="3.613"/>
	<g>
		<path fill="#868280" d="M62.767,37.041c-2.907-4.442-8.827-1.382-12.321,0.428c-1.178,0.611-2.654,1.303-3.043,2.636
			c-0.349,1.188-0.063,2.66,1.073,3.32c2.132,1.238,5.002,0.977,7.368,1.136c2.465,0.166,5.564-0.448,6.887-2.739
			C63.523,40.449,63.646,38.387,62.767,37.041z"/>
		<path fill="#F2B091" d="M47.469,40.831c1.721,0.013,0.503-2.441-0.771-1.72C45.554,39.761,46.542,40.822,47.469,40.831z"/>
		<circle fill="#5C5449" cx="50.523" cy="39.281" r="0.965"/>
		<path fill="#5C5449" d="M52.714,34.603c0.788-1.255,2.458-1.629,3.707-0.839c1.259,0.799,1.636,2.455,0.848,3.713
			c-0.797,1.255-2.462,1.635-3.716,0.838C52.293,37.522,51.922,35.856,52.714,34.603z"/>
		<path fill="#868280" d="M52.436,34.428c0.789-1.255,2.458-1.63,3.708-0.839c1.259,0.797,1.635,2.454,0.847,3.713
			c-0.797,1.253-2.462,1.635-3.716,0.837C52.016,37.347,51.644,35.682,52.436,34.428z"/>
		<g>
			<path fill="#868280" d="M60.372,42.758c-0.112,0-0.226-0.034-0.324-0.104c-0.251-0.18-0.308-0.527-0.128-0.778
				c0.89-1.243,2.487-1.126,3.896-1.017c0.787,0.06,1.531,0.117,2.037-0.062c0.556-0.192,0.912-0.553,1.028-1.04
				c0.15-0.628-0.107-1.404-0.657-1.976c-0.214-0.222-0.207-0.575,0.016-0.789c0.222-0.214,0.574-0.206,0.788,0.016
				c0.819,0.852,1.179,2.005,0.938,3.009c-0.207,0.863-0.828,1.515-1.747,1.835c-0.726,0.253-1.62,0.184-2.487,0.119
				c-1.223-0.092-2.381-0.181-2.906,0.555C60.717,42.677,60.546,42.758,60.372,42.758z"/>
		</g>
		<path fill="#5C5449" d="M58.623,42.646c0.471-0.747,1.465-0.971,2.21-0.499c0.75,0.476,0.974,1.464,0.505,2.214
			c-0.475,0.746-1.467,0.973-2.215,0.498C58.373,44.388,58.151,43.396,58.623,42.646z"/>
		<path fill="#FFFFFF" d="M59.24,43.037c0.256-0.408,0.799-0.528,1.205-0.271c0.408,0.258,0.53,0.797,0.275,1.206
			c-0.26,0.407-0.801,0.531-1.207,0.271C59.104,43.986,58.982,43.445,59.24,43.037z"/>
		<circle fill="#5C5449" cx="50.297" cy="43.99" r="0.806"/>
		<circle fill="#FFFFFF" cx="50.296" cy="43.99" r="0.373"/>
		<path fill="#F2B091" d="M53.718,37.2c-0.776-0.497,0.299-3.166,1.698-2.609C56.814,35.147,54.495,37.696,53.718,37.2z"/>
	</g>
</g>
<g>
	<ellipse fill="#507D8A" cx="21.854" cy="39.938" rx="21.854" ry="7.091"/>
	<path fill="#FFFFFF" d="M1.272,21.585c-1.941,2.106,2.499,4.39,4.572,5.136c1.292,0.467,2.834,0.662,2.755-1.144
		c-0.082-1.767-1.665-2.556-3.038-3.267C5.055,22.049,2.071,20.719,1.272,21.585z"/>
	<path fill="#FFFFFF" d="M49.667,11.077c0,0,0.584-6.747-0.608-7.771C47.861,2.28,42.214,5.55,42.214,5.55
		S47.379,11.301,49.667,11.077z"/>
	<path fill="#F2B091" d="M48.479,9.837c0,0,0.357-4.583-0.309-5.06c-0.668-0.477-3.445,1.48-3.445,1.48S47.303,10.059,48.479,9.837z
		"/>
	<path fill="#FFFFFF" d="M21.7,10.262c0,0,1.057-9.481,2.601-10.193c1.544-0.71,6.446,4.358,6.446,4.358S24.012,11.171,21.7,10.262z
		"/>
	<path fill="#F2B091" d="M23.552,7.89c0,0,0.582-5.219,1.432-5.61c0.85-0.391,3.548,2.399,3.548,2.399S24.825,8.391,23.552,7.89z"/>
	<path fill="#E0E0E0" d="M12.917,41.907c-0.673,0.058-1.346-0.175-1.992-0.825c-2.36-2.375,0.105-8.284,1.621-10.556
		c1.131-1.689,2.729-3.129,4.836-3.441c2.285-0.339,4.461,1.464,4.162,3.904c-0.298,2.435-2.86,4.621-4.193,6.605
		C16.281,39.189,15.111,41.719,12.917,41.907z"/>
	<path fill="#FFFFFF" d="M21.063,43.51c-5.186-0.076-1.902-9.01-0.365-11.313c1.131-1.689,2.729-3.129,4.836-3.441
		c1.97-0.293,4.497,1.231,4.003,3.484c-0.489,2.231-3.263,4.405-4.187,6.599C24.562,40.713,23.633,43.548,21.063,43.51z"/>
	<g>
		<g>
			<g>
				<g>
					<path fill="#868280" d="M22.321,44.405c-0.047,0-0.095-0.01-0.14-0.031c-0.161-0.078-0.229-0.271-0.151-0.432
						c0.181-0.376,0.313-1.205,0.235-1.479c-0.048-0.172,0.052-0.351,0.224-0.399c0.173-0.047,0.351,0.052,0.399,0.224
						c0.13,0.463-0.042,1.45-0.275,1.934C22.557,44.338,22.441,44.405,22.321,44.405z"/>
				</g>
			</g>
			<g>
				<g>
					<path fill="#868280" d="M20.372,44.28c-0.048,0-0.096-0.01-0.142-0.032c-0.161-0.079-0.227-0.272-0.148-0.433
						c0.194-0.398,0.307-1.223,0.237-1.48c-0.047-0.172,0.055-0.351,0.227-0.397c0.171-0.048,0.35,0.056,0.397,0.228
						c0.128,0.471-0.046,1.457-0.28,1.934C20.606,44.214,20.492,44.28,20.372,44.28z"/>
				</g>
			</g>
		</g>
	</g>
	<path fill="#FFFFFF" d="M26.568,17.763c-0.606-0.123-0.902-0.406-1.454-0.637c-0.643-0.271-1.395-0.236-2.074-0.328
		c-1.757-0.242-3.525-0.014-5.261,0.31c-3.696,0.687-7.204,2.537-9.473,5.557c-0.976,1.3-2.169,2.484-2.529,4.099
		c-0.909,4.082,0.8,6.811,4.425,8.825c5.502,3.06,12.197,2.643,18.3,1.326c5.565-1.2,10.796-4.405,10.046-10.829
		c-0.292-2.504-1.875-4.903-4.269-5.835C31.739,19.263,29.25,18.308,26.568,17.763z"/>
	<path fill="#FFFFFF" d="M26.568,16.043c-0.606-0.123-0.902-0.406-1.454-0.637c-0.643-0.271-1.395-0.236-2.074-0.328
		c-1.757-0.242-3.525-0.014-5.261,0.31c-3.696,0.687-7.204,2.537-9.473,5.557c-0.976,1.3-2.169,2.484-2.529,4.099
		c-0.909,4.082,0.8,6.811,4.425,8.825c5.502,3.06,12.197,2.643,18.3,1.326c5.565-1.2,10.796-4.405,10.046-10.829
		c-0.292-2.504-1.875-4.903-4.269-5.835C31.739,17.543,29.25,16.588,26.568,16.043z"/>
	<path fill="#FFFFFF" d="M29.977,42.68c-5.185-0.076-1.902-9.01-0.365-11.313c1.131-1.689,2.729-3.129,4.836-3.441
		c7.586-1.125,0.274,8.843-0.811,11.13C32.864,40.688,32.25,42.713,29.977,42.68z"/>
	<path fill="#71A5BA" d="M37.118,33.605c0.257-0.165,0.405-0.461,0.55-0.757c2.15-4.454-4.446-5.448-7.203-6.562
		c-3.764-1.521-6.24-10.429-9.737-12.426c-2.321-1.325-4.808,7.241-1.841,11.955c1.815,2.885,3.395,4.844,8,6.56
		C29.333,33.287,35.047,34.937,37.118,33.605z"/>
	<path fill="#FFFFFF" d="M50.632,12.226c-2.376-4.452-6.368-7.156-12.233-8.355C32.607,2.685,24.6,4.807,21.277,10.325
		c-3.263,5.414-3.52,11.789-0.006,15.438c3.463,3.599,13.433,8.705,23.012,5.825C53.092,28.943,53.431,17.483,50.632,12.226z"/>
	<path fill="#E0E0E0" d="M45.693,30.178c-9.578,2.88-19.548-2.227-23.011-5.825c-3.514-3.649-3.257-10.024,0.006-15.438
		c0.318-0.528,0.69-1.015,1.088-1.48c-0.981,0.831-1.836,1.791-2.499,2.892c-3.263,5.414-3.52,11.789-0.006,15.438
		c3.463,3.599,13.433,8.705,23.012,5.825c2.205-0.662,3.879-1.878,5.106-3.409C48.369,29.037,47.158,29.738,45.693,30.178z"/>
	<path fill="#5C5449" d="M42.563,17.14c0.312-0.54,1.009-0.729,1.551-0.418c0.544,0.316,0.729,1.01,0.417,1.552
		c-0.313,0.546-1.007,0.73-1.552,0.415C42.438,18.377,42.25,17.685,42.563,17.14z"/>
	<circle fill="#5C5449" cx="29.968" cy="16.726" r="1.137"/>
	<path fill="#5C5449" d="M37.191,19.879c-1.615-0.658,0.429-2.366,1.195-1.223C39.006,19.575,38.045,20.224,37.191,19.879z"/>
	<g>
		<path fill="#5C5449" d="M38.808,23.083c-0.032,0-0.065-0.007-0.099-0.021c-0.826-0.349-1.159-1.283-1.291-1.891
			c-0.01,0.022-0.021,0.045-0.031,0.067c-0.402,0.836-0.969,1.387-1.686,1.638c-0.133,0.047-0.275-0.023-0.321-0.155
			c-0.046-0.131,0.023-0.275,0.155-0.321c0.584-0.205,1.055-0.669,1.396-1.38c0.276-0.574,0.485-1.305,0.574-2.005
			c0-0.005,0.002-0.011,0.002-0.016c0.018-0.139,0.145-0.228,0.281-0.22c0.139,0.018,0.236,0.144,0.22,0.282l0,0
			c-0.015,0.119-0.032,0.244-0.052,0.372c-0.07,0.498-0.152,1.063-0.068,1.513c0.073,0.398,0.32,1.356,1.018,1.65
			c0.128,0.054,0.188,0.202,0.134,0.33C39,23.024,38.906,23.083,38.808,23.083z"/>
	</g>
	<path fill="#F2B091" d="M25.455,25.208c-1.489-0.631-2.081-2.252-1.789-3.779c0.288-1.508,1.445-2.075,2.881-2.244
		c2.433-0.29,4.738,1.995,3.854,4.485C29.76,25.477,27.095,25.902,25.455,25.208z"/>
	<path fill="#F2B091" d="M44.896,24.926c-1.198-0.507-1.674-1.812-1.438-3.04c0.231-1.211,1.161-1.668,2.317-1.804
		c1.955-0.233,3.807,1.603,3.098,3.606C48.358,25.141,46.215,25.482,44.896,24.926z"/>
	<path fill="#FFFFFF" d="M5.907,40.791c-0.841,0.114-1.702-0.21-2.335-1.188c-1.682-2.601,0.455-7.806,1.975-10.076
		c1.131-1.689,2.729-3.129,4.836-3.441c3.284-0.488,4.938,2.761,3.702,5.611c-0.606,1.396-2.03,2.086-3.023,3.276
		c-1.111,1.334-1.922,2.895-2.902,4.32C7.606,40.098,6.767,40.674,5.907,40.791z"/>
	<path fill="#5C5449" d="M31.18,14.635c0.015,0.001,0.028,0.002,0.042,0.002c1.121,0.001,0.779-1.144,0.049-1.471
		c-0.58-0.261-1.287-0.617-1.943-0.493c-0.287,0.054-0.438,0.245-0.367,0.556c0.066,0.288,0.297,0.521,0.52,0.699
		C29.942,14.299,30.583,14.595,31.18,14.635z"/>
	<path fill="#5C5449" d="M43.43,15.723c-0.016,0.001-0.029,0.002-0.043,0.002c-1.121,0.001-0.779-1.144-0.049-1.471
		c0.58-0.261,1.287-0.617,1.943-0.493c0.287,0.054,0.439,0.245,0.367,0.556c-0.066,0.288-0.297,0.521-0.52,0.699
		C44.668,15.387,44.026,15.683,43.43,15.723z"/>
	
		<rect x="42.069" y="16.015" transform="matrix(0.9257 -0.3782 0.3782 0.9257 -3.0185 17.6886)" fill="#FFFFFF" width="2.907" height="1.028"/>
	
		<rect x="29.012" y="15.428" transform="matrix(0.9054 0.4246 -0.4246 0.9054 9.6129 -11.4369)" fill="#FFFFFF" width="2.907" height="0.841"/>
	<path fill="#FFFFFF" d="M16.754,16.141c-0.681-0.795-2.411-2.296-2.411-2.296l-0.499,2.968c0,0-2.929-4.411-3.193-4.456
		c-0.264-0.046,0.648,5.295,0.648,5.295l-3.221-2.175c0,0,0.579,2.931,0.98,4.488C12.996,21.558,16.4,18.463,16.754,16.141z"/>
	<g>
		<g>
			<g>
				<g>
					<path fill="#868280" d="M30.836,43.328c-0.047,0-0.095-0.01-0.14-0.031c-0.161-0.078-0.229-0.271-0.151-0.432
						c0.181-0.376,0.313-1.205,0.235-1.479c-0.048-0.172,0.052-0.351,0.224-0.399c0.174-0.048,0.351,0.052,0.399,0.224
						c0.13,0.463-0.042,1.45-0.275,1.934C31.072,43.261,30.956,43.328,30.836,43.328z"/>
				</g>
			</g>
			<g>
				<g>
					<path fill="#868280" d="M28.887,43.203c-0.048,0-0.096-0.01-0.142-0.032c-0.161-0.079-0.227-0.272-0.148-0.433
						c0.194-0.398,0.307-1.223,0.237-1.48c-0.047-0.172,0.055-0.351,0.227-0.397c0.171-0.05,0.35,0.056,0.397,0.228
						c0.128,0.471-0.046,1.457-0.28,1.934C29.121,43.137,29.006,43.203,28.887,43.203z"/>
				</g>
			</g>
		</g>
	</g>
	<g>
		<g>
			<g>
				<g>
					<path fill="#868280" d="M13.054,43.026c-0.075,0-0.149-0.025-0.21-0.078c-0.136-0.116-0.151-0.32-0.035-0.456
						c0.271-0.315,0.612-1.083,0.608-1.367c-0.003-0.179,0.14-0.326,0.319-0.328c0.001,0,0.003,0,0.004,0
						c0.177,0,0.321,0.142,0.323,0.318c0.007,0.481-0.414,1.391-0.763,1.799C13.235,42.988,13.145,43.026,13.054,43.026z"/>
				</g>
			</g>
			<g>
				<g>
					<path fill="#868280" d="M11.202,42.405c-0.075,0-0.15-0.025-0.212-0.079c-0.135-0.116-0.149-0.321-0.033-0.456
						c0.29-0.335,0.611-1.103,0.61-1.37c-0.001-0.179,0.143-0.324,0.322-0.325c0.169-0.022,0.324,0.143,0.325,0.321
						c0.002,0.488-0.42,1.396-0.768,1.798C11.383,42.367,11.292,42.405,11.202,42.405z"/>
				</g>
			</g>
		</g>
	</g>
	<g>
		<g>
			<g>
				<g>
					<path fill="#868280" d="M6.007,41.656c-0.075,0-0.149-0.025-0.21-0.078c-0.136-0.116-0.151-0.32-0.035-0.456
						c0.271-0.315,0.612-1.083,0.608-1.367c-0.003-0.179,0.14-0.326,0.319-0.328c0.202,0.013,0.325,0.14,0.328,0.318
						c0.007,0.481-0.414,1.391-0.763,1.799C6.189,41.618,6.098,41.656,6.007,41.656z"/>
				</g>
			</g>
			<g>
				<g>
					<path fill="#868280" d="M4.156,41.035c-0.075,0-0.15-0.025-0.212-0.079C3.809,40.84,3.794,40.635,3.911,40.5
						c0.29-0.335,0.611-1.103,0.61-1.37c-0.001-0.179,0.143-0.324,0.322-0.325c0,0,0.001,0,0.001,0c0.178,0,0.323,0.144,0.324,0.321
						c0.002,0.488-0.42,1.396-0.768,1.798C4.336,40.997,4.246,41.035,4.156,41.035z"/>
				</g>
			</g>
		</g>
	</g>
	<path fill="#C7C8CA" d="M36.104,5.68c0.096-0.018,0.18-0.063,0.227-0.164c0.203-0.452-0.525-1.153-0.176-1.57
		c0.359-0.43,1.598-0.256,2.045-0.074c0.504,0.203,0.514,0.543,0.541,1.004c0.037,0.685,0.617,0.511,1.127,0.544
		c0.451,0.028,1.184,0.122,1.49,0.502c0.26,0.319,0.121,0.988-0.213,1.228c-0.338,0.24-0.996,0.021-1.377,0.017
		c-0.227-0.003-0.533-0.054-0.682,0.177c-0.158,0.245-0.029,0.726,0.266,0.791C39.988,8.275,40.447,8.066,41,8.472
		c0.492,0.362,0.334,1.077-0.117,1.404c-0.586,0.419-1.506,0.372-2.172,0.253c-0.174,0.933,0.219,2.121-0.986,2.364
		c-1.576,0.314-1.246-1.708-1.207-2.623c-0.766-0.207-1.635,0.559-2.317-0.072c-0.578-0.537-0.24-1.308,0.422-1.571
		c0.319-0.129,0.696-0.191,1.04-0.203c0.273-0.01,0.344,0.083,0.436-0.187c0.287-0.839-0.711-0.565-1.199-0.556
		c-0.418,0.008-0.799-0.027-1.038-0.422c-0.23-0.381,0.047-0.768,0.449-0.93c0.402-0.16,0.973-0.215,1.393-0.236
		C35.828,5.688,35.977,5.705,36.104,5.68z"/>
</g>
</svg>
